<mxfile host="app.diagrams.net" modified="2022-03-24T11:24:58.911Z" agent="5.0 (Windows NT 10.0; Win64; x64) AppleWebKit/537.36 (KHTML, like Gecko) Chrome/99.0.4844.74 Safari/537.36 Edg/99.0.1150.46" etag="rt8QOUayf5zG3XxNf56N" version="17.2.1" type="github">
  <diagram id="OyRcTyBlNtmZmaSBtb3-" name="Page-1">
    <mxGraphModel dx="920" dy="551" grid="1" gridSize="10" guides="1" tooltips="1" connect="1" arrows="1" fold="1" page="1" pageScale="1" pageWidth="827" pageHeight="1169" math="0" shadow="0">
      <root>
        <mxCell id="0" />
        <mxCell id="1" parent="0" />
        <mxCell id="z1wBFRxJV2j2c12fdlnA-1" value="" style="shape=table;childLayout=tableLayout;fixedRows=1;rounded=0;whiteSpace=wrap;html=1;startSize=0;" parent="1" vertex="1">
          <mxGeometry x="480" y="27.5" width="115" height="112.5" as="geometry" />
        </mxCell>
        <mxCell id="bO-Ev2rAPcP5Glvwb2sy-28" value="" style="shape=tableRow;horizontal=0;startSize=0;swimlaneHead=0;swimlaneBody=0;fillColor=none;collapsible=0;dropTarget=0;points=[[0,0.5],[1,0.5]];portConstraint=eastwest;top=0;left=0;right=0;bottom=1;" parent="z1wBFRxJV2j2c12fdlnA-1" vertex="1">
          <mxGeometry width="115" height="20" as="geometry" />
        </mxCell>
        <mxCell id="bO-Ev2rAPcP5Glvwb2sy-29" value="PK" style="shape=partialRectangle;connectable=0;fillColor=none;top=0;left=0;bottom=0;right=0;fontStyle=1;overflow=hidden;" parent="bO-Ev2rAPcP5Glvwb2sy-28" vertex="1">
          <mxGeometry width="19" height="20" as="geometry">
            <mxRectangle width="19" height="20" as="alternateBounds" />
          </mxGeometry>
        </mxCell>
        <mxCell id="bO-Ev2rAPcP5Glvwb2sy-30" value="id читателя" style="shape=partialRectangle;connectable=0;fillColor=none;top=0;left=0;bottom=0;right=0;align=left;spacingLeft=6;fontStyle=5;overflow=hidden;" parent="bO-Ev2rAPcP5Glvwb2sy-28" vertex="1">
          <mxGeometry x="19" width="96" height="20" as="geometry">
            <mxRectangle width="96" height="20" as="alternateBounds" />
          </mxGeometry>
        </mxCell>
        <mxCell id="Pqjdnb121rRu-mDI8d-q-112" value="" style="shape=tableRow;horizontal=0;startSize=0;swimlaneHead=0;swimlaneBody=0;fillColor=none;collapsible=0;dropTarget=0;points=[[0,0.5],[1,0.5]];portConstraint=eastwest;top=0;left=0;right=0;bottom=0;" parent="z1wBFRxJV2j2c12fdlnA-1" vertex="1">
          <mxGeometry y="20" width="115" height="30" as="geometry" />
        </mxCell>
        <mxCell id="Pqjdnb121rRu-mDI8d-q-113" value="AK" style="shape=partialRectangle;connectable=0;fillColor=none;top=0;left=0;bottom=0;right=0;fontStyle=0;overflow=hidden;" parent="Pqjdnb121rRu-mDI8d-q-112" vertex="1">
          <mxGeometry width="19" height="30" as="geometry">
            <mxRectangle width="19" height="30" as="alternateBounds" />
          </mxGeometry>
        </mxCell>
        <mxCell id="Pqjdnb121rRu-mDI8d-q-114" value="серия-номер&#xa;паспорта" style="shape=partialRectangle;connectable=0;fillColor=none;top=0;left=0;bottom=0;right=0;align=left;spacingLeft=6;fontStyle=0;overflow=hidden;" parent="Pqjdnb121rRu-mDI8d-q-112" vertex="1">
          <mxGeometry x="19" width="96" height="30" as="geometry">
            <mxRectangle width="96" height="30" as="alternateBounds" />
          </mxGeometry>
        </mxCell>
        <mxCell id="UOg6_Ew0T-RVkcR_U9us-1" value="" style="shape=tableRow;horizontal=0;startSize=0;swimlaneHead=0;swimlaneBody=0;fillColor=none;collapsible=0;dropTarget=0;points=[[0,0.5],[1,0.5]];portConstraint=eastwest;top=0;left=0;right=0;bottom=0;" parent="z1wBFRxJV2j2c12fdlnA-1" vertex="1">
          <mxGeometry y="50" width="115" height="20" as="geometry" />
        </mxCell>
        <mxCell id="UOg6_Ew0T-RVkcR_U9us-2" value="" style="shape=partialRectangle;connectable=0;fillColor=none;top=0;left=0;bottom=0;right=0;editable=1;overflow=hidden;" parent="UOg6_Ew0T-RVkcR_U9us-1" vertex="1">
          <mxGeometry width="19" height="20" as="geometry">
            <mxRectangle width="19" height="20" as="alternateBounds" />
          </mxGeometry>
        </mxCell>
        <mxCell id="UOg6_Ew0T-RVkcR_U9us-3" value="ФИО" style="shape=partialRectangle;connectable=0;fillColor=none;top=0;left=0;bottom=0;right=0;align=left;spacingLeft=6;overflow=hidden;" parent="UOg6_Ew0T-RVkcR_U9us-1" vertex="1">
          <mxGeometry x="19" width="96" height="20" as="geometry">
            <mxRectangle width="96" height="20" as="alternateBounds" />
          </mxGeometry>
        </mxCell>
        <mxCell id="UOg6_Ew0T-RVkcR_U9us-4" value="" style="shape=tableRow;horizontal=0;startSize=0;swimlaneHead=0;swimlaneBody=0;fillColor=none;collapsible=0;dropTarget=0;points=[[0,0.5],[1,0.5]];portConstraint=eastwest;top=0;left=0;right=0;bottom=0;" parent="z1wBFRxJV2j2c12fdlnA-1" vertex="1">
          <mxGeometry y="70" width="115" height="20" as="geometry" />
        </mxCell>
        <mxCell id="UOg6_Ew0T-RVkcR_U9us-5" value="" style="shape=partialRectangle;connectable=0;fillColor=none;top=0;left=0;bottom=0;right=0;editable=1;overflow=hidden;" parent="UOg6_Ew0T-RVkcR_U9us-4" vertex="1">
          <mxGeometry width="19" height="20" as="geometry">
            <mxRectangle width="19" height="20" as="alternateBounds" />
          </mxGeometry>
        </mxCell>
        <mxCell id="UOg6_Ew0T-RVkcR_U9us-6" value="Адрес" style="shape=partialRectangle;connectable=0;fillColor=none;top=0;left=0;bottom=0;right=0;align=left;spacingLeft=6;overflow=hidden;" parent="UOg6_Ew0T-RVkcR_U9us-4" vertex="1">
          <mxGeometry x="19" width="96" height="20" as="geometry">
            <mxRectangle width="96" height="20" as="alternateBounds" />
          </mxGeometry>
        </mxCell>
        <mxCell id="UOg6_Ew0T-RVkcR_U9us-7" value="" style="shape=tableRow;horizontal=0;startSize=0;swimlaneHead=0;swimlaneBody=0;fillColor=none;collapsible=0;dropTarget=0;points=[[0,0.5],[1,0.5]];portConstraint=eastwest;top=0;left=0;right=0;bottom=0;" parent="z1wBFRxJV2j2c12fdlnA-1" vertex="1">
          <mxGeometry y="90" width="115" height="20" as="geometry" />
        </mxCell>
        <mxCell id="UOg6_Ew0T-RVkcR_U9us-8" value="" style="shape=partialRectangle;connectable=0;fillColor=none;top=0;left=0;bottom=0;right=0;editable=1;overflow=hidden;" parent="UOg6_Ew0T-RVkcR_U9us-7" vertex="1">
          <mxGeometry width="19" height="20" as="geometry">
            <mxRectangle width="19" height="20" as="alternateBounds" />
          </mxGeometry>
        </mxCell>
        <mxCell id="UOg6_Ew0T-RVkcR_U9us-9" value="Телефон" style="shape=partialRectangle;connectable=0;fillColor=none;top=0;left=0;bottom=0;right=0;align=left;spacingLeft=6;overflow=hidden;" parent="UOg6_Ew0T-RVkcR_U9us-7" vertex="1">
          <mxGeometry x="19" width="96" height="20" as="geometry">
            <mxRectangle width="96" height="20" as="alternateBounds" />
          </mxGeometry>
        </mxCell>
        <mxCell id="z1wBFRxJV2j2c12fdlnA-2" value="E1/Читатель" style="text;html=1;align=center;verticalAlign=middle;resizable=0;points=[];autosize=1;strokeColor=none;fillColor=none;" parent="1" vertex="1">
          <mxGeometry x="492.5" y="7.5" width="90" height="20" as="geometry" />
        </mxCell>
        <mxCell id="z1wBFRxJV2j2c12fdlnA-4" value="E2/Читательский&lt;br&gt;билет" style="text;html=1;align=center;verticalAlign=middle;resizable=0;points=[];autosize=1;strokeColor=none;fillColor=none;" parent="1" vertex="1">
          <mxGeometry x="275" y="50" width="110" height="30" as="geometry" />
        </mxCell>
        <mxCell id="z1wBFRxJV2j2c12fdlnA-5" value="" style="shape=table;childLayout=tableLayout;fixedRows=1;rounded=0;whiteSpace=wrap;html=1;startSize=0;" parent="1" vertex="1">
          <mxGeometry x="115" y="510" width="120" height="80" as="geometry" />
        </mxCell>
        <mxCell id="bO-Ev2rAPcP5Glvwb2sy-86" value="" style="shape=tableRow;horizontal=0;startSize=0;swimlaneHead=0;swimlaneBody=0;fillColor=none;collapsible=0;dropTarget=0;points=[[0,0.5],[1,0.5]];portConstraint=eastwest;top=0;left=0;right=0;bottom=1;" parent="z1wBFRxJV2j2c12fdlnA-5" vertex="1">
          <mxGeometry width="120" height="30" as="geometry" />
        </mxCell>
        <mxCell id="bO-Ev2rAPcP5Glvwb2sy-87" value="PK" style="shape=partialRectangle;connectable=0;fillColor=none;top=0;left=0;bottom=0;right=0;fontStyle=1;overflow=hidden;" parent="bO-Ev2rAPcP5Glvwb2sy-86" vertex="1">
          <mxGeometry width="20" height="30" as="geometry">
            <mxRectangle width="20" height="30" as="alternateBounds" />
          </mxGeometry>
        </mxCell>
        <mxCell id="bO-Ev2rAPcP5Glvwb2sy-88" value="id автора&#xa;в системе" style="shape=partialRectangle;connectable=0;fillColor=none;top=0;left=0;bottom=0;right=0;align=left;spacingLeft=6;fontStyle=5;overflow=hidden;" parent="bO-Ev2rAPcP5Glvwb2sy-86" vertex="1">
          <mxGeometry x="20" width="100" height="30" as="geometry">
            <mxRectangle width="100" height="30" as="alternateBounds" />
          </mxGeometry>
        </mxCell>
        <mxCell id="UOg6_Ew0T-RVkcR_U9us-49" value="" style="shape=tableRow;horizontal=0;startSize=0;swimlaneHead=0;swimlaneBody=0;fillColor=none;collapsible=0;dropTarget=0;points=[[0,0.5],[1,0.5]];portConstraint=eastwest;top=0;left=0;right=0;bottom=0;" parent="z1wBFRxJV2j2c12fdlnA-5" vertex="1">
          <mxGeometry y="30" width="120" height="20" as="geometry" />
        </mxCell>
        <mxCell id="UOg6_Ew0T-RVkcR_U9us-50" value="" style="shape=partialRectangle;connectable=0;fillColor=none;top=0;left=0;bottom=0;right=0;editable=1;overflow=hidden;" parent="UOg6_Ew0T-RVkcR_U9us-49" vertex="1">
          <mxGeometry width="20" height="20" as="geometry">
            <mxRectangle width="20" height="20" as="alternateBounds" />
          </mxGeometry>
        </mxCell>
        <mxCell id="UOg6_Ew0T-RVkcR_U9us-51" value="ФИО" style="shape=partialRectangle;connectable=0;fillColor=none;top=0;left=0;bottom=0;right=0;align=left;spacingLeft=6;overflow=hidden;" parent="UOg6_Ew0T-RVkcR_U9us-49" vertex="1">
          <mxGeometry x="20" width="100" height="20" as="geometry">
            <mxRectangle width="100" height="20" as="alternateBounds" />
          </mxGeometry>
        </mxCell>
        <mxCell id="UOg6_Ew0T-RVkcR_U9us-52" value="" style="shape=tableRow;horizontal=0;startSize=0;swimlaneHead=0;swimlaneBody=0;fillColor=none;collapsible=0;dropTarget=0;points=[[0,0.5],[1,0.5]];portConstraint=eastwest;top=0;left=0;right=0;bottom=0;" parent="z1wBFRxJV2j2c12fdlnA-5" vertex="1">
          <mxGeometry y="50" width="120" height="30" as="geometry" />
        </mxCell>
        <mxCell id="UOg6_Ew0T-RVkcR_U9us-53" value="" style="shape=partialRectangle;connectable=0;fillColor=none;top=0;left=0;bottom=0;right=0;editable=1;overflow=hidden;" parent="UOg6_Ew0T-RVkcR_U9us-52" vertex="1">
          <mxGeometry width="20" height="30" as="geometry">
            <mxRectangle width="20" height="30" as="alternateBounds" />
          </mxGeometry>
        </mxCell>
        <mxCell id="UOg6_Ew0T-RVkcR_U9us-54" value="Краткая&#xa;биография" style="shape=partialRectangle;connectable=0;fillColor=none;top=0;left=0;bottom=0;right=0;align=left;spacingLeft=6;overflow=hidden;" parent="UOg6_Ew0T-RVkcR_U9us-52" vertex="1">
          <mxGeometry x="20" width="100" height="30" as="geometry">
            <mxRectangle width="100" height="30" as="alternateBounds" />
          </mxGeometry>
        </mxCell>
        <mxCell id="z1wBFRxJV2j2c12fdlnA-6" value="E3/Автор" style="text;html=1;align=center;verticalAlign=middle;resizable=0;points=[];autosize=1;strokeColor=none;fillColor=none;" parent="1" vertex="1">
          <mxGeometry x="140" y="490" width="70" height="20" as="geometry" />
        </mxCell>
        <mxCell id="z1wBFRxJV2j2c12fdlnA-7" value="" style="shape=table;childLayout=tableLayout;fixedRows=1;rounded=0;whiteSpace=wrap;html=1;startSize=0;" parent="1" vertex="1">
          <mxGeometry x="705" y="349.96" width="125" height="110.07999999999997" as="geometry" />
        </mxCell>
        <mxCell id="bO-Ev2rAPcP5Glvwb2sy-55" value="" style="shape=tableRow;horizontal=0;startSize=0;swimlaneHead=0;swimlaneBody=0;fillColor=none;collapsible=0;dropTarget=0;points=[[0,0.5],[1,0.5]];portConstraint=eastwest;top=0;left=0;right=0;bottom=1;" parent="z1wBFRxJV2j2c12fdlnA-7" vertex="1">
          <mxGeometry width="125" height="20" as="geometry" />
        </mxCell>
        <mxCell id="bO-Ev2rAPcP5Glvwb2sy-56" value="PK" style="shape=partialRectangle;connectable=0;fillColor=none;top=0;left=0;bottom=0;right=0;fontStyle=1;overflow=hidden;" parent="bO-Ev2rAPcP5Glvwb2sy-55" vertex="1">
          <mxGeometry width="21" height="20" as="geometry">
            <mxRectangle width="21" height="20" as="alternateBounds" />
          </mxGeometry>
        </mxCell>
        <mxCell id="bO-Ev2rAPcP5Glvwb2sy-57" value="Номер рубрики" style="shape=partialRectangle;connectable=0;fillColor=none;top=0;left=0;bottom=0;right=0;align=left;spacingLeft=6;fontStyle=5;overflow=hidden;" parent="bO-Ev2rAPcP5Glvwb2sy-55" vertex="1">
          <mxGeometry x="21" width="104" height="20" as="geometry">
            <mxRectangle width="104" height="20" as="alternateBounds" />
          </mxGeometry>
        </mxCell>
        <mxCell id="bO-Ev2rAPcP5Glvwb2sy-58" value="" style="shape=tableRow;horizontal=0;startSize=0;swimlaneHead=0;swimlaneBody=0;fillColor=none;collapsible=0;dropTarget=0;points=[[0,0.5],[1,0.5]];portConstraint=eastwest;top=0;left=0;right=0;bottom=0;" parent="z1wBFRxJV2j2c12fdlnA-7" vertex="1">
          <mxGeometry y="20" width="125" height="30" as="geometry" />
        </mxCell>
        <mxCell id="bO-Ev2rAPcP5Glvwb2sy-59" value="FK" style="shape=partialRectangle;connectable=0;fillColor=none;top=0;left=0;bottom=0;right=0;fontStyle=0;overflow=hidden;" parent="bO-Ev2rAPcP5Glvwb2sy-58" vertex="1">
          <mxGeometry width="21" height="30" as="geometry">
            <mxRectangle width="21" height="30" as="alternateBounds" />
          </mxGeometry>
        </mxCell>
        <mxCell id="bO-Ev2rAPcP5Glvwb2sy-60" value="Номер&#xa;надкатегории" style="shape=partialRectangle;connectable=0;fillColor=none;top=0;left=0;bottom=0;right=0;align=left;spacingLeft=6;fontStyle=0;overflow=hidden;" parent="bO-Ev2rAPcP5Glvwb2sy-58" vertex="1">
          <mxGeometry x="21" width="104" height="30" as="geometry">
            <mxRectangle width="104" height="30" as="alternateBounds" />
          </mxGeometry>
        </mxCell>
        <mxCell id="UOg6_Ew0T-RVkcR_U9us-64" value="" style="shape=tableRow;horizontal=0;startSize=0;swimlaneHead=0;swimlaneBody=0;fillColor=none;collapsible=0;dropTarget=0;points=[[0,0.5],[1,0.5]];portConstraint=eastwest;top=0;left=0;right=0;bottom=0;" parent="z1wBFRxJV2j2c12fdlnA-7" vertex="1">
          <mxGeometry y="50" width="125" height="30" as="geometry" />
        </mxCell>
        <mxCell id="UOg6_Ew0T-RVkcR_U9us-65" value="" style="shape=partialRectangle;connectable=0;fillColor=none;top=0;left=0;bottom=0;right=0;editable=1;overflow=hidden;" parent="UOg6_Ew0T-RVkcR_U9us-64" vertex="1">
          <mxGeometry width="21" height="30" as="geometry">
            <mxRectangle width="21" height="30" as="alternateBounds" />
          </mxGeometry>
        </mxCell>
        <mxCell id="UOg6_Ew0T-RVkcR_U9us-66" value="Название&#xa;рубрики" style="shape=partialRectangle;connectable=0;fillColor=none;top=0;left=0;bottom=0;right=0;align=left;spacingLeft=6;overflow=hidden;" parent="UOg6_Ew0T-RVkcR_U9us-64" vertex="1">
          <mxGeometry x="21" width="104" height="30" as="geometry">
            <mxRectangle width="104" height="30" as="alternateBounds" />
          </mxGeometry>
        </mxCell>
        <mxCell id="UOg6_Ew0T-RVkcR_U9us-67" value="" style="shape=tableRow;horizontal=0;startSize=0;swimlaneHead=0;swimlaneBody=0;fillColor=none;collapsible=0;dropTarget=0;points=[[0,0.5],[1,0.5]];portConstraint=eastwest;top=0;left=0;right=0;bottom=0;" parent="z1wBFRxJV2j2c12fdlnA-7" vertex="1">
          <mxGeometry y="80" width="125" height="30" as="geometry" />
        </mxCell>
        <mxCell id="UOg6_Ew0T-RVkcR_U9us-68" value="" style="shape=partialRectangle;connectable=0;fillColor=none;top=0;left=0;bottom=0;right=0;editable=1;overflow=hidden;" parent="UOg6_Ew0T-RVkcR_U9us-67" vertex="1">
          <mxGeometry width="21" height="30" as="geometry">
            <mxRectangle width="21" height="30" as="alternateBounds" />
          </mxGeometry>
        </mxCell>
        <mxCell id="UOg6_Ew0T-RVkcR_U9us-69" value="Краткое&#xa;описание" style="shape=partialRectangle;connectable=0;fillColor=none;top=0;left=0;bottom=0;right=0;align=left;spacingLeft=6;overflow=hidden;" parent="UOg6_Ew0T-RVkcR_U9us-67" vertex="1">
          <mxGeometry x="21" width="104" height="30" as="geometry">
            <mxRectangle width="104" height="30" as="alternateBounds" />
          </mxGeometry>
        </mxCell>
        <mxCell id="z1wBFRxJV2j2c12fdlnA-8" value="E4/Раздел (рубрика)" style="text;html=1;align=center;verticalAlign=middle;resizable=0;points=[];autosize=1;strokeColor=none;fillColor=none;" parent="1" vertex="1">
          <mxGeometry x="700" y="329.96" width="130" height="20" as="geometry" />
        </mxCell>
        <mxCell id="z1wBFRxJV2j2c12fdlnA-9" value="" style="shape=table;childLayout=tableLayout;fixedRows=1;rounded=0;whiteSpace=wrap;html=1;startSize=0;" parent="1" vertex="1">
          <mxGeometry x="265" y="630" width="130" height="110" as="geometry" />
        </mxCell>
        <mxCell id="bO-Ev2rAPcP5Glvwb2sy-119" value="" style="shape=tableRow;horizontal=0;startSize=0;swimlaneHead=0;swimlaneBody=0;fillColor=none;collapsible=0;dropTarget=0;points=[[0,0.5],[1,0.5]];portConstraint=eastwest;top=0;left=0;right=0;bottom=1;" parent="z1wBFRxJV2j2c12fdlnA-9" vertex="1">
          <mxGeometry width="130" height="30" as="geometry" />
        </mxCell>
        <mxCell id="bO-Ev2rAPcP5Glvwb2sy-120" value="PK" style="shape=partialRectangle;connectable=0;fillColor=none;top=0;left=0;bottom=0;right=0;fontStyle=1;overflow=hidden;" parent="bO-Ev2rAPcP5Glvwb2sy-119" vertex="1">
          <mxGeometry width="22" height="30" as="geometry">
            <mxRectangle width="22" height="30" as="alternateBounds" />
          </mxGeometry>
        </mxCell>
        <mxCell id="bO-Ev2rAPcP5Glvwb2sy-121" value="id издательства" style="shape=partialRectangle;connectable=0;fillColor=none;top=0;left=0;bottom=0;right=0;align=left;spacingLeft=6;fontStyle=5;overflow=hidden;" parent="bO-Ev2rAPcP5Glvwb2sy-119" vertex="1">
          <mxGeometry x="22" width="108" height="30" as="geometry">
            <mxRectangle width="108" height="30" as="alternateBounds" />
          </mxGeometry>
        </mxCell>
        <mxCell id="UOg6_Ew0T-RVkcR_U9us-55" value="" style="shape=tableRow;horizontal=0;startSize=0;swimlaneHead=0;swimlaneBody=0;fillColor=none;collapsible=0;dropTarget=0;points=[[0,0.5],[1,0.5]];portConstraint=eastwest;top=0;left=0;right=0;bottom=0;" parent="z1wBFRxJV2j2c12fdlnA-9" vertex="1">
          <mxGeometry y="30" width="130" height="30" as="geometry" />
        </mxCell>
        <mxCell id="UOg6_Ew0T-RVkcR_U9us-56" value="" style="shape=partialRectangle;connectable=0;fillColor=none;top=0;left=0;bottom=0;right=0;editable=1;overflow=hidden;" parent="UOg6_Ew0T-RVkcR_U9us-55" vertex="1">
          <mxGeometry width="22" height="30" as="geometry">
            <mxRectangle width="22" height="30" as="alternateBounds" />
          </mxGeometry>
        </mxCell>
        <mxCell id="UOg6_Ew0T-RVkcR_U9us-57" value="Название&#xa;издательства" style="shape=partialRectangle;connectable=0;fillColor=none;top=0;left=0;bottom=0;right=0;align=left;spacingLeft=6;overflow=hidden;" parent="UOg6_Ew0T-RVkcR_U9us-55" vertex="1">
          <mxGeometry x="22" width="108" height="30" as="geometry">
            <mxRectangle width="108" height="30" as="alternateBounds" />
          </mxGeometry>
        </mxCell>
        <mxCell id="UOg6_Ew0T-RVkcR_U9us-58" value="" style="shape=tableRow;horizontal=0;startSize=0;swimlaneHead=0;swimlaneBody=0;fillColor=none;collapsible=0;dropTarget=0;points=[[0,0.5],[1,0.5]];portConstraint=eastwest;top=0;left=0;right=0;bottom=0;" parent="z1wBFRxJV2j2c12fdlnA-9" vertex="1">
          <mxGeometry y="60" width="130" height="30" as="geometry" />
        </mxCell>
        <mxCell id="UOg6_Ew0T-RVkcR_U9us-59" value="" style="shape=partialRectangle;connectable=0;fillColor=none;top=0;left=0;bottom=0;right=0;editable=1;overflow=hidden;" parent="UOg6_Ew0T-RVkcR_U9us-58" vertex="1">
          <mxGeometry width="22" height="30" as="geometry">
            <mxRectangle width="22" height="30" as="alternateBounds" />
          </mxGeometry>
        </mxCell>
        <mxCell id="UOg6_Ew0T-RVkcR_U9us-60" value="Место&#xa;дислокации" style="shape=partialRectangle;connectable=0;fillColor=none;top=0;left=0;bottom=0;right=0;align=left;spacingLeft=6;overflow=hidden;" parent="UOg6_Ew0T-RVkcR_U9us-58" vertex="1">
          <mxGeometry x="22" width="108" height="30" as="geometry">
            <mxRectangle width="108" height="30" as="alternateBounds" />
          </mxGeometry>
        </mxCell>
        <mxCell id="UOg6_Ew0T-RVkcR_U9us-61" value="" style="shape=tableRow;horizontal=0;startSize=0;swimlaneHead=0;swimlaneBody=0;fillColor=none;collapsible=0;dropTarget=0;points=[[0,0.5],[1,0.5]];portConstraint=eastwest;top=0;left=0;right=0;bottom=0;" parent="z1wBFRxJV2j2c12fdlnA-9" vertex="1">
          <mxGeometry y="90" width="130" height="20" as="geometry" />
        </mxCell>
        <mxCell id="UOg6_Ew0T-RVkcR_U9us-62" value="" style="shape=partialRectangle;connectable=0;fillColor=none;top=0;left=0;bottom=0;right=0;editable=1;overflow=hidden;" parent="UOg6_Ew0T-RVkcR_U9us-61" vertex="1">
          <mxGeometry width="22" height="20" as="geometry">
            <mxRectangle width="22" height="20" as="alternateBounds" />
          </mxGeometry>
        </mxCell>
        <mxCell id="UOg6_Ew0T-RVkcR_U9us-63" value="Описание" style="shape=partialRectangle;connectable=0;fillColor=none;top=0;left=0;bottom=0;right=0;align=left;spacingLeft=6;overflow=hidden;" parent="UOg6_Ew0T-RVkcR_U9us-61" vertex="1">
          <mxGeometry x="22" width="108" height="20" as="geometry">
            <mxRectangle width="108" height="20" as="alternateBounds" />
          </mxGeometry>
        </mxCell>
        <mxCell id="z1wBFRxJV2j2c12fdlnA-10" value="E5/Издательство" style="text;html=1;align=center;verticalAlign=middle;resizable=0;points=[];autosize=1;strokeColor=none;fillColor=none;" parent="1" vertex="1">
          <mxGeometry x="269" y="610" width="110" height="20" as="geometry" />
        </mxCell>
        <mxCell id="z1wBFRxJV2j2c12fdlnA-13" value="" style="shape=table;childLayout=tableLayout;fixedRows=1;rounded=0;whiteSpace=wrap;html=1;startSize=0;" parent="1" vertex="1">
          <mxGeometry x="310" y="240" width="115" height="60" as="geometry" />
        </mxCell>
        <mxCell id="bO-Ev2rAPcP5Glvwb2sy-76" value="" style="shape=tableRow;horizontal=0;startSize=0;swimlaneHead=0;swimlaneBody=0;fillColor=none;collapsible=0;dropTarget=0;points=[[0,0.5],[1,0.5]];portConstraint=eastwest;top=0;left=0;right=0;bottom=1;" parent="z1wBFRxJV2j2c12fdlnA-13" vertex="1">
          <mxGeometry width="115" height="30" as="geometry" />
        </mxCell>
        <mxCell id="bO-Ev2rAPcP5Glvwb2sy-77" value="PK" style="shape=partialRectangle;connectable=0;fillColor=none;top=0;left=0;bottom=0;right=0;fontStyle=1;overflow=hidden;" parent="bO-Ev2rAPcP5Glvwb2sy-76" vertex="1">
          <mxGeometry width="19" height="30" as="geometry">
            <mxRectangle width="19" height="30" as="alternateBounds" />
          </mxGeometry>
        </mxCell>
        <mxCell id="bO-Ev2rAPcP5Glvwb2sy-78" value="Номер запроса" style="shape=partialRectangle;connectable=0;fillColor=none;top=0;left=0;bottom=0;right=0;align=left;spacingLeft=6;fontStyle=5;overflow=hidden;" parent="bO-Ev2rAPcP5Glvwb2sy-76" vertex="1">
          <mxGeometry x="19" width="96" height="30" as="geometry">
            <mxRectangle width="96" height="30" as="alternateBounds" />
          </mxGeometry>
        </mxCell>
        <mxCell id="bO-Ev2rAPcP5Glvwb2sy-79" value="" style="shape=tableRow;horizontal=0;startSize=0;swimlaneHead=0;swimlaneBody=0;fillColor=none;collapsible=0;dropTarget=0;points=[[0,0.5],[1,0.5]];portConstraint=eastwest;top=0;left=0;right=0;bottom=0;" parent="z1wBFRxJV2j2c12fdlnA-13" vertex="1">
          <mxGeometry y="30" width="115" height="30" as="geometry" />
        </mxCell>
        <mxCell id="bO-Ev2rAPcP5Glvwb2sy-80" value="FK" style="shape=partialRectangle;connectable=0;fillColor=none;top=0;left=0;bottom=0;right=0;fontStyle=0;overflow=hidden;" parent="bO-Ev2rAPcP5Glvwb2sy-79" vertex="1">
          <mxGeometry width="19" height="30" as="geometry">
            <mxRectangle width="19" height="30" as="alternateBounds" />
          </mxGeometry>
        </mxCell>
        <mxCell id="bO-Ev2rAPcP5Glvwb2sy-81" value="связанный&#xa;номер билета" style="shape=partialRectangle;connectable=0;fillColor=none;top=0;left=0;bottom=0;right=0;align=left;spacingLeft=6;fontStyle=0;overflow=hidden;" parent="bO-Ev2rAPcP5Glvwb2sy-79" vertex="1">
          <mxGeometry x="19" width="96" height="30" as="geometry">
            <mxRectangle width="96" height="30" as="alternateBounds" />
          </mxGeometry>
        </mxCell>
        <mxCell id="z1wBFRxJV2j2c12fdlnA-14" value="E7/Запрос по&lt;br&gt;списку литературы" style="text;html=1;align=center;verticalAlign=middle;resizable=0;points=[];autosize=1;strokeColor=none;fillColor=none;" parent="1" vertex="1">
          <mxGeometry x="305" y="210" width="120" height="30" as="geometry" />
        </mxCell>
        <mxCell id="z1wBFRxJV2j2c12fdlnA-19" value="" style="shape=table;childLayout=tableLayout;fixedRows=1;rounded=1;whiteSpace=wrap;html=1;startSize=0;" parent="1" vertex="1">
          <mxGeometry x="270" y="80" width="120" height="80" as="geometry" />
        </mxCell>
        <mxCell id="bO-Ev2rAPcP5Glvwb2sy-32" value="" style="shape=tableRow;horizontal=0;startSize=0;swimlaneHead=0;swimlaneBody=0;fillColor=none;collapsible=0;dropTarget=0;points=[[0,0.5],[1,0.5]];portConstraint=eastwest;top=0;left=0;right=0;bottom=1;" parent="z1wBFRxJV2j2c12fdlnA-19" vertex="1">
          <mxGeometry width="120" height="20" as="geometry" />
        </mxCell>
        <mxCell id="bO-Ev2rAPcP5Glvwb2sy-33" value="PK" style="shape=partialRectangle;connectable=0;fillColor=none;top=0;left=0;bottom=0;right=0;fontStyle=1;overflow=hidden;" parent="bO-Ev2rAPcP5Glvwb2sy-32" vertex="1">
          <mxGeometry width="20" height="20" as="geometry">
            <mxRectangle width="20" height="20" as="alternateBounds" />
          </mxGeometry>
        </mxCell>
        <mxCell id="bO-Ev2rAPcP5Glvwb2sy-34" value="Номер билета" style="shape=partialRectangle;connectable=0;fillColor=none;top=0;left=0;bottom=0;right=0;align=left;spacingLeft=6;fontStyle=5;overflow=hidden;" parent="bO-Ev2rAPcP5Glvwb2sy-32" vertex="1">
          <mxGeometry x="20" width="100" height="20" as="geometry">
            <mxRectangle width="100" height="20" as="alternateBounds" />
          </mxGeometry>
        </mxCell>
        <mxCell id="Pqjdnb121rRu-mDI8d-q-98" value="" style="shape=tableRow;horizontal=0;startSize=0;swimlaneHead=0;swimlaneBody=0;fillColor=none;collapsible=0;dropTarget=0;points=[[0,0.5],[1,0.5]];portConstraint=eastwest;top=0;left=0;right=0;bottom=0;" parent="z1wBFRxJV2j2c12fdlnA-19" vertex="1">
          <mxGeometry y="20" width="120" height="20" as="geometry" />
        </mxCell>
        <mxCell id="Pqjdnb121rRu-mDI8d-q-99" value="FK" style="shape=partialRectangle;connectable=0;fillColor=none;top=0;left=0;bottom=0;right=0;fontStyle=0;overflow=hidden;" parent="Pqjdnb121rRu-mDI8d-q-98" vertex="1">
          <mxGeometry width="20" height="20" as="geometry">
            <mxRectangle width="20" height="20" as="alternateBounds" />
          </mxGeometry>
        </mxCell>
        <mxCell id="Pqjdnb121rRu-mDI8d-q-100" value="id читателя" style="shape=partialRectangle;connectable=0;fillColor=none;top=0;left=0;bottom=0;right=0;align=left;spacingLeft=6;fontStyle=0;overflow=hidden;" parent="Pqjdnb121rRu-mDI8d-q-98" vertex="1">
          <mxGeometry x="20" width="100" height="20" as="geometry">
            <mxRectangle width="100" height="20" as="alternateBounds" />
          </mxGeometry>
        </mxCell>
        <mxCell id="UOg6_Ew0T-RVkcR_U9us-10" value="" style="shape=tableRow;horizontal=0;startSize=0;swimlaneHead=0;swimlaneBody=0;fillColor=none;collapsible=0;dropTarget=0;points=[[0,0.5],[1,0.5]];portConstraint=eastwest;top=0;left=0;right=0;bottom=0;" parent="z1wBFRxJV2j2c12fdlnA-19" vertex="1">
          <mxGeometry y="40" width="120" height="20" as="geometry" />
        </mxCell>
        <mxCell id="UOg6_Ew0T-RVkcR_U9us-11" value="" style="shape=partialRectangle;connectable=0;fillColor=none;top=0;left=0;bottom=0;right=0;editable=1;overflow=hidden;" parent="UOg6_Ew0T-RVkcR_U9us-10" vertex="1">
          <mxGeometry width="20" height="20" as="geometry">
            <mxRectangle width="20" height="20" as="alternateBounds" />
          </mxGeometry>
        </mxCell>
        <mxCell id="UOg6_Ew0T-RVkcR_U9us-12" value="Дата выдачи" style="shape=partialRectangle;connectable=0;fillColor=none;top=0;left=0;bottom=0;right=0;align=left;spacingLeft=6;overflow=hidden;" parent="UOg6_Ew0T-RVkcR_U9us-10" vertex="1">
          <mxGeometry x="20" width="100" height="20" as="geometry">
            <mxRectangle width="100" height="20" as="alternateBounds" />
          </mxGeometry>
        </mxCell>
        <mxCell id="UOg6_Ew0T-RVkcR_U9us-13" value="" style="shape=tableRow;horizontal=0;startSize=0;swimlaneHead=0;swimlaneBody=0;fillColor=none;collapsible=0;dropTarget=0;points=[[0,0.5],[1,0.5]];portConstraint=eastwest;top=0;left=0;right=0;bottom=0;" parent="z1wBFRxJV2j2c12fdlnA-19" vertex="1">
          <mxGeometry y="60" width="120" height="20" as="geometry" />
        </mxCell>
        <mxCell id="UOg6_Ew0T-RVkcR_U9us-14" value="" style="shape=partialRectangle;connectable=0;fillColor=none;top=0;left=0;bottom=0;right=0;editable=1;overflow=hidden;" parent="UOg6_Ew0T-RVkcR_U9us-13" vertex="1">
          <mxGeometry width="20" height="20" as="geometry">
            <mxRectangle width="20" height="20" as="alternateBounds" />
          </mxGeometry>
        </mxCell>
        <mxCell id="UOg6_Ew0T-RVkcR_U9us-15" value="Срок действия" style="shape=partialRectangle;connectable=0;fillColor=none;top=0;left=0;bottom=0;right=0;align=left;spacingLeft=6;overflow=hidden;" parent="UOg6_Ew0T-RVkcR_U9us-13" vertex="1">
          <mxGeometry x="20" width="100" height="20" as="geometry">
            <mxRectangle width="100" height="20" as="alternateBounds" />
          </mxGeometry>
        </mxCell>
        <mxCell id="z1wBFRxJV2j2c12fdlnA-20" value="" style="endArrow=none;html=1;rounded=0;exitDx=0;exitDy=0;exitPerimeter=0;startArrow=none;" parent="1" source="Pqjdnb121rRu-mDI8d-q-37" edge="1">
          <mxGeometry width="50" height="50" relative="1" as="geometry">
            <mxPoint x="400" y="130" as="sourcePoint" />
            <mxPoint x="480" y="70" as="targetPoint" />
            <Array as="points">
              <mxPoint x="440" y="130" />
              <mxPoint x="440" y="70" />
            </Array>
          </mxGeometry>
        </mxCell>
        <mxCell id="z1wBFRxJV2j2c12fdlnA-21" value="Соответствует/&lt;br&gt;Имеет" style="text;html=1;align=center;verticalAlign=middle;resizable=0;points=[];autosize=1;strokeColor=none;fillColor=none;" parent="1" vertex="1">
          <mxGeometry x="390" y="90" width="100" height="30" as="geometry" />
        </mxCell>
        <mxCell id="z1wBFRxJV2j2c12fdlnA-23" value="" style="shape=table;childLayout=tableLayout;fixedRows=1;rounded=0;whiteSpace=wrap;html=1;startSize=0;" parent="1" vertex="1">
          <mxGeometry x="255" y="330" width="125" height="170" as="geometry" />
        </mxCell>
        <mxCell id="bO-Ev2rAPcP5Glvwb2sy-82" value="" style="shape=tableRow;horizontal=0;startSize=0;swimlaneHead=0;swimlaneBody=0;fillColor=none;collapsible=0;dropTarget=0;points=[[0,0.5],[1,0.5]];portConstraint=eastwest;top=0;left=0;right=0;bottom=1;" parent="z1wBFRxJV2j2c12fdlnA-23" vertex="1">
          <mxGeometry width="125" height="20" as="geometry" />
        </mxCell>
        <mxCell id="bO-Ev2rAPcP5Glvwb2sy-83" value="PK" style="shape=partialRectangle;connectable=0;fillColor=none;top=0;left=0;bottom=0;right=0;fontStyle=1;overflow=hidden;" parent="bO-Ev2rAPcP5Glvwb2sy-82" vertex="1">
          <mxGeometry width="21" height="20" as="geometry">
            <mxRectangle width="21" height="20" as="alternateBounds" />
          </mxGeometry>
        </mxCell>
        <mxCell id="bO-Ev2rAPcP5Glvwb2sy-84" value="ICBN" style="shape=partialRectangle;connectable=0;fillColor=none;top=0;left=0;bottom=0;right=0;align=left;spacingLeft=6;fontStyle=5;overflow=hidden;" parent="bO-Ev2rAPcP5Glvwb2sy-82" vertex="1">
          <mxGeometry x="21" width="104" height="20" as="geometry">
            <mxRectangle width="104" height="20" as="alternateBounds" />
          </mxGeometry>
        </mxCell>
        <mxCell id="Pqjdnb121rRu-mDI8d-q-60" value="" style="shape=tableRow;horizontal=0;startSize=0;swimlaneHead=0;swimlaneBody=0;fillColor=none;collapsible=0;dropTarget=0;points=[[0,0.5],[1,0.5]];portConstraint=eastwest;top=0;left=0;right=0;bottom=0;" parent="z1wBFRxJV2j2c12fdlnA-23" vertex="1">
          <mxGeometry y="20" width="125" height="30" as="geometry" />
        </mxCell>
        <mxCell id="Pqjdnb121rRu-mDI8d-q-61" value="FK" style="shape=partialRectangle;connectable=0;fillColor=none;top=0;left=0;bottom=0;right=0;fontStyle=0;overflow=hidden;" parent="Pqjdnb121rRu-mDI8d-q-60" vertex="1">
          <mxGeometry width="21" height="30" as="geometry">
            <mxRectangle width="21" height="30" as="alternateBounds" />
          </mxGeometry>
        </mxCell>
        <mxCell id="Pqjdnb121rRu-mDI8d-q-62" value="id издательства" style="shape=partialRectangle;connectable=0;fillColor=none;top=0;left=0;bottom=0;right=0;align=left;spacingLeft=6;fontStyle=0;overflow=hidden;" parent="Pqjdnb121rRu-mDI8d-q-60" vertex="1">
          <mxGeometry x="21" width="104" height="30" as="geometry">
            <mxRectangle width="104" height="30" as="alternateBounds" />
          </mxGeometry>
        </mxCell>
        <mxCell id="UOg6_Ew0T-RVkcR_U9us-46" value="" style="shape=tableRow;horizontal=0;startSize=0;swimlaneHead=0;swimlaneBody=0;fillColor=none;collapsible=0;dropTarget=0;points=[[0,0.5],[1,0.5]];portConstraint=eastwest;top=0;left=0;right=0;bottom=0;" parent="z1wBFRxJV2j2c12fdlnA-23" vertex="1">
          <mxGeometry y="50" width="125" height="20" as="geometry" />
        </mxCell>
        <mxCell id="UOg6_Ew0T-RVkcR_U9us-47" value="" style="shape=partialRectangle;connectable=0;fillColor=none;top=0;left=0;bottom=0;right=0;editable=1;overflow=hidden;" parent="UOg6_Ew0T-RVkcR_U9us-46" vertex="1">
          <mxGeometry width="21" height="20" as="geometry">
            <mxRectangle width="21" height="20" as="alternateBounds" />
          </mxGeometry>
        </mxCell>
        <mxCell id="UOg6_Ew0T-RVkcR_U9us-48" value="Название книги" style="shape=partialRectangle;connectable=0;fillColor=none;top=0;left=0;bottom=0;right=0;align=left;spacingLeft=6;overflow=hidden;" parent="UOg6_Ew0T-RVkcR_U9us-46" vertex="1">
          <mxGeometry x="21" width="104" height="20" as="geometry">
            <mxRectangle width="104" height="20" as="alternateBounds" />
          </mxGeometry>
        </mxCell>
        <mxCell id="UOg6_Ew0T-RVkcR_U9us-34" value="" style="shape=tableRow;horizontal=0;startSize=0;swimlaneHead=0;swimlaneBody=0;fillColor=none;collapsible=0;dropTarget=0;points=[[0,0.5],[1,0.5]];portConstraint=eastwest;top=0;left=0;right=0;bottom=0;" parent="z1wBFRxJV2j2c12fdlnA-23" vertex="1">
          <mxGeometry y="70" width="125" height="20" as="geometry" />
        </mxCell>
        <mxCell id="UOg6_Ew0T-RVkcR_U9us-35" value="" style="shape=partialRectangle;connectable=0;fillColor=none;top=0;left=0;bottom=0;right=0;editable=1;overflow=hidden;" parent="UOg6_Ew0T-RVkcR_U9us-34" vertex="1">
          <mxGeometry width="21" height="20" as="geometry">
            <mxRectangle width="21" height="20" as="alternateBounds" />
          </mxGeometry>
        </mxCell>
        <mxCell id="UOg6_Ew0T-RVkcR_U9us-36" value="Год издания" style="shape=partialRectangle;connectable=0;fillColor=none;top=0;left=0;bottom=0;right=0;align=left;spacingLeft=6;overflow=hidden;" parent="UOg6_Ew0T-RVkcR_U9us-34" vertex="1">
          <mxGeometry x="21" width="104" height="20" as="geometry">
            <mxRectangle width="104" height="20" as="alternateBounds" />
          </mxGeometry>
        </mxCell>
        <mxCell id="UOg6_Ew0T-RVkcR_U9us-37" value="" style="shape=tableRow;horizontal=0;startSize=0;swimlaneHead=0;swimlaneBody=0;fillColor=none;collapsible=0;dropTarget=0;points=[[0,0.5],[1,0.5]];portConstraint=eastwest;top=0;left=0;right=0;bottom=0;" parent="z1wBFRxJV2j2c12fdlnA-23" vertex="1">
          <mxGeometry y="90" width="125" height="20" as="geometry" />
        </mxCell>
        <mxCell id="UOg6_Ew0T-RVkcR_U9us-38" value="" style="shape=partialRectangle;connectable=0;fillColor=none;top=0;left=0;bottom=0;right=0;editable=1;overflow=hidden;" parent="UOg6_Ew0T-RVkcR_U9us-37" vertex="1">
          <mxGeometry width="21" height="20" as="geometry">
            <mxRectangle width="21" height="20" as="alternateBounds" />
          </mxGeometry>
        </mxCell>
        <mxCell id="UOg6_Ew0T-RVkcR_U9us-39" value="Кол-во страниц" style="shape=partialRectangle;connectable=0;fillColor=none;top=0;left=0;bottom=0;right=0;align=left;spacingLeft=6;overflow=hidden;" parent="UOg6_Ew0T-RVkcR_U9us-37" vertex="1">
          <mxGeometry x="21" width="104" height="20" as="geometry">
            <mxRectangle width="104" height="20" as="alternateBounds" />
          </mxGeometry>
        </mxCell>
        <mxCell id="UOg6_Ew0T-RVkcR_U9us-40" value="" style="shape=tableRow;horizontal=0;startSize=0;swimlaneHead=0;swimlaneBody=0;fillColor=none;collapsible=0;dropTarget=0;points=[[0,0.5],[1,0.5]];portConstraint=eastwest;top=0;left=0;right=0;bottom=0;" parent="z1wBFRxJV2j2c12fdlnA-23" vertex="1">
          <mxGeometry y="110" width="125" height="30" as="geometry" />
        </mxCell>
        <mxCell id="UOg6_Ew0T-RVkcR_U9us-41" value="" style="shape=partialRectangle;connectable=0;fillColor=none;top=0;left=0;bottom=0;right=0;editable=1;overflow=hidden;" parent="UOg6_Ew0T-RVkcR_U9us-40" vertex="1">
          <mxGeometry width="21" height="30" as="geometry">
            <mxRectangle width="21" height="30" as="alternateBounds" />
          </mxGeometry>
        </mxCell>
        <mxCell id="UOg6_Ew0T-RVkcR_U9us-42" value="Кол-во&#xa;экземпляров" style="shape=partialRectangle;connectable=0;fillColor=none;top=0;left=0;bottom=0;right=0;align=left;spacingLeft=6;overflow=hidden;" parent="UOg6_Ew0T-RVkcR_U9us-40" vertex="1">
          <mxGeometry x="21" width="104" height="30" as="geometry">
            <mxRectangle width="104" height="30" as="alternateBounds" />
          </mxGeometry>
        </mxCell>
        <mxCell id="UOg6_Ew0T-RVkcR_U9us-43" value="" style="shape=tableRow;horizontal=0;startSize=0;swimlaneHead=0;swimlaneBody=0;fillColor=none;collapsible=0;dropTarget=0;points=[[0,0.5],[1,0.5]];portConstraint=eastwest;top=0;left=0;right=0;bottom=0;" parent="z1wBFRxJV2j2c12fdlnA-23" vertex="1">
          <mxGeometry y="140" width="125" height="30" as="geometry" />
        </mxCell>
        <mxCell id="UOg6_Ew0T-RVkcR_U9us-44" value="" style="shape=partialRectangle;connectable=0;fillColor=none;top=0;left=0;bottom=0;right=0;editable=1;overflow=hidden;" parent="UOg6_Ew0T-RVkcR_U9us-43" vertex="1">
          <mxGeometry width="21" height="30" as="geometry">
            <mxRectangle width="21" height="30" as="alternateBounds" />
          </mxGeometry>
        </mxCell>
        <mxCell id="UOg6_Ew0T-RVkcR_U9us-45" value="Краткое&#xa;описание" style="shape=partialRectangle;connectable=0;fillColor=none;top=0;left=0;bottom=0;right=0;align=left;spacingLeft=6;overflow=hidden;" parent="UOg6_Ew0T-RVkcR_U9us-43" vertex="1">
          <mxGeometry x="21" width="104" height="30" as="geometry">
            <mxRectangle width="104" height="30" as="alternateBounds" />
          </mxGeometry>
        </mxCell>
        <mxCell id="z1wBFRxJV2j2c12fdlnA-24" value="E6/Издание (Книга)" style="text;html=1;align=center;verticalAlign=middle;resizable=0;points=[];autosize=1;strokeColor=none;fillColor=none;" parent="1" vertex="1">
          <mxGeometry x="255" y="310" width="120" height="20" as="geometry" />
        </mxCell>
        <mxCell id="z1wBFRxJV2j2c12fdlnA-31" value="" style="endArrow=none;html=1;dashed=0;rounded=0;entryX=0;entryY=0.5;entryDx=0;entryDy=0;startArrow=none;" parent="1" source="z1wBFRxJV2j2c12fdlnA-33" target="z1wBFRxJV2j2c12fdlnA-23" edge="1">
          <mxGeometry relative="1" as="geometry">
            <mxPoint x="180" y="410" as="sourcePoint" />
            <mxPoint x="215" y="460" as="targetPoint" />
            <Array as="points">
              <mxPoint x="215" y="410" />
            </Array>
          </mxGeometry>
        </mxCell>
        <mxCell id="z1wBFRxJV2j2c12fdlnA-35" value="" style="endArrow=none;html=1;dashed=1;rounded=0;entryX=0;entryY=0.5;entryDx=0;entryDy=0;exitDx=0;exitDy=0;startArrow=none;" parent="1" source="z1wBFRxJV2j2c12fdlnA-36" target="z1wBFRxJV2j2c12fdlnA-9" edge="1">
          <mxGeometry relative="1" as="geometry">
            <mxPoint x="315" y="560" as="sourcePoint" />
            <mxPoint x="475" y="470" as="targetPoint" />
            <Array as="points">
              <mxPoint x="315" y="570" />
              <mxPoint x="250" y="570" />
              <mxPoint x="250" y="660" />
            </Array>
          </mxGeometry>
        </mxCell>
        <mxCell id="z1wBFRxJV2j2c12fdlnA-45" value="" style="endArrow=close;html=1;dashed=1;endSize=12;startArrow=diamondThin;startSize=14;startFill=0;edgeStyle=orthogonalEdgeStyle;rounded=0;entryX=1;entryY=0.5;entryDx=0;entryDy=0;exitX=0.5;exitY=1;exitDx=0;exitDy=0;" parent="1" source="z1wBFRxJV2j2c12fdlnA-7" target="z1wBFRxJV2j2c12fdlnA-7" edge="1">
          <mxGeometry relative="1" as="geometry">
            <mxPoint x="715" y="489.96" as="sourcePoint" />
            <mxPoint x="905" y="479.96" as="targetPoint" />
            <Array as="points">
              <mxPoint x="768" y="510" />
              <mxPoint x="845" y="510" />
              <mxPoint x="845" y="410" />
            </Array>
          </mxGeometry>
        </mxCell>
        <mxCell id="z1wBFRxJV2j2c12fdlnA-48" value="" style="shape=waypoint;sketch=0;fillStyle=solid;size=6;pointerEvents=1;points=[];fillColor=none;resizable=0;rotatable=0;perimeter=centerPerimeter;snapToPoint=1;" parent="1" vertex="1">
          <mxGeometry x="810" y="389.96" width="40" height="40" as="geometry" />
        </mxCell>
        <mxCell id="z1wBFRxJV2j2c12fdlnA-58" value="" style="endArrow=none;html=1;dashed=1;rounded=0;entryX=0;entryY=0.5;entryDx=0;entryDy=0;exitX=0.212;exitY=1.053;exitDx=0;exitDy=0;exitPerimeter=0;" parent="1" source="UOg6_Ew0T-RVkcR_U9us-13" target="z1wBFRxJV2j2c12fdlnA-13" edge="1">
          <mxGeometry relative="1" as="geometry">
            <mxPoint x="295" y="210" as="sourcePoint" />
            <mxPoint x="450" y="290" as="targetPoint" />
            <Array as="points">
              <mxPoint x="295" y="270" />
            </Array>
          </mxGeometry>
        </mxCell>
        <mxCell id="z1wBFRxJV2j2c12fdlnA-59" value="" style="shape=waypoint;sketch=0;fillStyle=solid;size=6;pointerEvents=1;points=[];fillColor=none;resizable=0;rotatable=0;perimeter=centerPerimeter;snapToPoint=1;" parent="1" vertex="1">
          <mxGeometry x="290" y="250" width="40" height="40" as="geometry" />
        </mxCell>
        <mxCell id="z1wBFRxJV2j2c12fdlnA-64" value="" style="endArrow=none;html=1;rounded=0;exitDx=0;exitDy=0;startArrow=none;" parent="1" edge="1">
          <mxGeometry relative="1" as="geometry">
            <mxPoint x="100" y="369.9999999999999" as="sourcePoint" />
            <mxPoint x="100" y="370" as="targetPoint" />
            <Array as="points" />
          </mxGeometry>
        </mxCell>
        <mxCell id="z1wBFRxJV2j2c12fdlnA-66" value="Содержит подкатегорию/&lt;br&gt;Входит в надкатегорию" style="text;html=1;align=center;verticalAlign=middle;resizable=0;points=[];autosize=1;strokeColor=none;fillColor=none;" parent="1" vertex="1">
          <mxGeometry x="850" y="429.96" width="150" height="30" as="geometry" />
        </mxCell>
        <mxCell id="z1wBFRxJV2j2c12fdlnA-70" value="Принадлежит/&lt;br&gt;Издало" style="text;html=1;align=center;verticalAlign=middle;resizable=0;points=[];autosize=1;strokeColor=none;fillColor=none;" parent="1" vertex="1">
          <mxGeometry x="245" y="572.5" width="90" height="30" as="geometry" />
        </mxCell>
        <mxCell id="bO-Ev2rAPcP5Glvwb2sy-72" value="" style="endArrow=none;html=1;rounded=0;exitX=0.5;exitY=1;exitDx=0;exitDy=0;" parent="1" edge="1">
          <mxGeometry relative="1" as="geometry">
            <mxPoint x="100" y="370.0000000000001" as="sourcePoint" />
            <mxPoint x="100" y="369.9999999999999" as="targetPoint" />
            <Array as="points" />
          </mxGeometry>
        </mxCell>
        <mxCell id="z1wBFRxJV2j2c12fdlnA-36" value="" style="shape=waypoint;sketch=0;fillStyle=solid;size=6;pointerEvents=1;points=[];fillColor=none;resizable=0;rotatable=0;perimeter=centerPerimeter;snapToPoint=1;" parent="1" vertex="1">
          <mxGeometry x="295" y="480" width="40" height="40" as="geometry" />
        </mxCell>
        <mxCell id="Pqjdnb121rRu-mDI8d-q-1" value="" style="shape=table;childLayout=tableLayout;fixedRows=1;rounded=0;whiteSpace=wrap;html=1;startSize=0;" parent="1" vertex="1">
          <mxGeometry x="60" y="390" width="120" height="50" as="geometry" />
        </mxCell>
        <mxCell id="Pqjdnb121rRu-mDI8d-q-2" value="" style="shape=tableRow;horizontal=0;startSize=0;swimlaneHead=0;swimlaneBody=0;fillColor=none;collapsible=0;dropTarget=0;points=[[0,0.5],[1,0.5]];portConstraint=eastwest;top=0;left=0;right=0;bottom=1;" parent="Pqjdnb121rRu-mDI8d-q-1" vertex="1">
          <mxGeometry width="120" height="20" as="geometry" />
        </mxCell>
        <mxCell id="Pqjdnb121rRu-mDI8d-q-3" value="FK" style="shape=partialRectangle;connectable=0;fillColor=none;top=0;left=0;bottom=0;right=0;fontStyle=1;overflow=hidden;" parent="Pqjdnb121rRu-mDI8d-q-2" vertex="1">
          <mxGeometry width="20" height="20" as="geometry">
            <mxRectangle width="20" height="20" as="alternateBounds" />
          </mxGeometry>
        </mxCell>
        <mxCell id="Pqjdnb121rRu-mDI8d-q-4" value="ICBN" style="shape=partialRectangle;connectable=0;fillColor=none;top=0;left=0;bottom=0;right=0;align=left;spacingLeft=6;fontStyle=5;overflow=hidden;" parent="Pqjdnb121rRu-mDI8d-q-2" vertex="1">
          <mxGeometry x="20" width="100" height="20" as="geometry">
            <mxRectangle width="100" height="20" as="alternateBounds" />
          </mxGeometry>
        </mxCell>
        <mxCell id="Pqjdnb121rRu-mDI8d-q-69" value="" style="shape=tableRow;horizontal=0;startSize=0;swimlaneHead=0;swimlaneBody=0;fillColor=none;collapsible=0;dropTarget=0;points=[[0,0.5],[1,0.5]];portConstraint=eastwest;top=0;left=0;right=0;bottom=1;" parent="Pqjdnb121rRu-mDI8d-q-1" vertex="1">
          <mxGeometry y="20" width="120" height="30" as="geometry" />
        </mxCell>
        <mxCell id="Pqjdnb121rRu-mDI8d-q-70" value="FK" style="shape=partialRectangle;connectable=0;fillColor=none;top=0;left=0;bottom=0;right=0;fontStyle=1;overflow=hidden;" parent="Pqjdnb121rRu-mDI8d-q-69" vertex="1">
          <mxGeometry width="20" height="30" as="geometry">
            <mxRectangle width="20" height="30" as="alternateBounds" />
          </mxGeometry>
        </mxCell>
        <mxCell id="Pqjdnb121rRu-mDI8d-q-71" value="id автора&#xa;в системе" style="shape=partialRectangle;connectable=0;fillColor=none;top=0;left=0;bottom=0;right=0;align=left;spacingLeft=6;fontStyle=5;overflow=hidden;" parent="Pqjdnb121rRu-mDI8d-q-69" vertex="1">
          <mxGeometry x="20" width="100" height="30" as="geometry">
            <mxRectangle width="100" height="30" as="alternateBounds" />
          </mxGeometry>
        </mxCell>
        <mxCell id="Pqjdnb121rRu-mDI8d-q-5" value="E10/Авторы издания" style="text;html=1;align=center;verticalAlign=middle;resizable=0;points=[];autosize=1;strokeColor=none;fillColor=none;" parent="1" vertex="1">
          <mxGeometry x="55" y="370" width="130" height="20" as="geometry" />
        </mxCell>
        <mxCell id="Pqjdnb121rRu-mDI8d-q-6" value="" style="endArrow=none;html=1;rounded=0;exitDx=0;exitDy=0;exitPerimeter=0;entryX=-0.007;entryY=0.648;entryDx=0;entryDy=0;entryPerimeter=0;startArrow=none;" parent="1" source="Pqjdnb121rRu-mDI8d-q-8" target="z1wBFRxJV2j2c12fdlnA-5" edge="1">
          <mxGeometry relative="1" as="geometry">
            <mxPoint x="320" y="440" as="sourcePoint" />
            <mxPoint x="110" y="560" as="targetPoint" />
            <Array as="points">
              <mxPoint x="80" y="555" />
            </Array>
          </mxGeometry>
        </mxCell>
        <mxCell id="Pqjdnb121rRu-mDI8d-q-8" value="" style="shape=waypoint;sketch=0;fillStyle=solid;size=6;pointerEvents=1;points=[];fillColor=none;resizable=0;rotatable=0;perimeter=centerPerimeter;snapToPoint=1;" parent="1" vertex="1">
          <mxGeometry x="60" y="430" width="40" height="40" as="geometry" />
        </mxCell>
        <mxCell id="Pqjdnb121rRu-mDI8d-q-10" value="" style="endArrow=none;html=1;rounded=0;exitX=0.167;exitY=1;exitDx=0;exitDy=0;exitPerimeter=0;entryDx=0;entryDy=0;entryPerimeter=0;" parent="1" source="Pqjdnb121rRu-mDI8d-q-1" target="Pqjdnb121rRu-mDI8d-q-8" edge="1">
          <mxGeometry relative="1" as="geometry">
            <mxPoint x="80.03999999999996" y="460" as="sourcePoint" />
            <mxPoint x="114.16000000000003" y="555.36" as="targetPoint" />
            <Array as="points">
              <mxPoint x="80" y="555" />
            </Array>
          </mxGeometry>
        </mxCell>
        <mxCell id="Pqjdnb121rRu-mDI8d-q-11" value="" style="shape=table;childLayout=tableLayout;fixedRows=1;rounded=0;whiteSpace=wrap;html=1;startSize=0;" parent="1" vertex="1">
          <mxGeometry x="450" y="580" width="120" height="40" as="geometry" />
        </mxCell>
        <mxCell id="Pqjdnb121rRu-mDI8d-q-119" value="" style="shape=tableRow;horizontal=0;startSize=0;swimlaneHead=0;swimlaneBody=0;fillColor=none;collapsible=0;dropTarget=0;points=[[0,0.5],[1,0.5]];portConstraint=eastwest;top=0;left=0;right=0;bottom=1;" parent="Pqjdnb121rRu-mDI8d-q-11" vertex="1">
          <mxGeometry width="120" height="20" as="geometry" />
        </mxCell>
        <mxCell id="Pqjdnb121rRu-mDI8d-q-120" value="FK" style="shape=partialRectangle;connectable=0;fillColor=none;top=0;left=0;bottom=0;right=0;fontStyle=1;overflow=hidden;" parent="Pqjdnb121rRu-mDI8d-q-119" vertex="1">
          <mxGeometry width="20" height="20" as="geometry">
            <mxRectangle width="20" height="20" as="alternateBounds" />
          </mxGeometry>
        </mxCell>
        <mxCell id="Pqjdnb121rRu-mDI8d-q-121" value="ICBN" style="shape=partialRectangle;connectable=0;fillColor=none;top=0;left=0;bottom=0;right=0;align=left;spacingLeft=6;fontStyle=5;overflow=hidden;" parent="Pqjdnb121rRu-mDI8d-q-119" vertex="1">
          <mxGeometry x="20" width="100" height="20" as="geometry">
            <mxRectangle width="100" height="20" as="alternateBounds" />
          </mxGeometry>
        </mxCell>
        <mxCell id="Pqjdnb121rRu-mDI8d-q-122" value="" style="shape=tableRow;horizontal=0;startSize=0;swimlaneHead=0;swimlaneBody=0;fillColor=none;collapsible=0;dropTarget=0;points=[[0,0.5],[1,0.5]];portConstraint=eastwest;top=0;left=0;right=0;bottom=1;" parent="Pqjdnb121rRu-mDI8d-q-11" vertex="1">
          <mxGeometry y="20" width="120" height="20" as="geometry" />
        </mxCell>
        <mxCell id="Pqjdnb121rRu-mDI8d-q-123" value="FK" style="shape=partialRectangle;connectable=0;fillColor=none;top=0;left=0;bottom=0;right=0;fontStyle=1;overflow=hidden;" parent="Pqjdnb121rRu-mDI8d-q-122" vertex="1">
          <mxGeometry width="20" height="20" as="geometry">
            <mxRectangle width="20" height="20" as="alternateBounds" />
          </mxGeometry>
        </mxCell>
        <mxCell id="Pqjdnb121rRu-mDI8d-q-124" value="Номер рубрики" style="shape=partialRectangle;connectable=0;fillColor=none;top=0;left=0;bottom=0;right=0;align=left;spacingLeft=6;fontStyle=5;overflow=hidden;" parent="Pqjdnb121rRu-mDI8d-q-122" vertex="1">
          <mxGeometry x="20" width="100" height="20" as="geometry">
            <mxRectangle width="100" height="20" as="alternateBounds" />
          </mxGeometry>
        </mxCell>
        <mxCell id="Pqjdnb121rRu-mDI8d-q-15" value="E11/Издание в рубрике" style="text;html=1;align=center;verticalAlign=middle;resizable=0;points=[];autosize=1;strokeColor=none;fillColor=none;" parent="1" vertex="1">
          <mxGeometry x="440" y="560" width="140" height="20" as="geometry" />
        </mxCell>
        <mxCell id="Pqjdnb121rRu-mDI8d-q-16" value="" style="endArrow=none;html=1;rounded=0;exitDx=0;exitDy=0;entryX=0.014;entryY=0.008;entryDx=0;entryDy=0;exitPerimeter=0;startArrow=none;exitX=0.56;exitY=1.112;entryPerimeter=0;" parent="1" source="Pqjdnb121rRu-mDI8d-q-115" target="UOg6_Ew0T-RVkcR_U9us-67" edge="1">
          <mxGeometry relative="1" as="geometry">
            <mxPoint x="570" y="580" as="sourcePoint" />
            <mxPoint x="602.5" y="470" as="targetPoint" />
            <Array as="points">
              <mxPoint x="650" y="600" />
              <mxPoint x="650" y="440" />
            </Array>
          </mxGeometry>
        </mxCell>
        <mxCell id="Pqjdnb121rRu-mDI8d-q-26" value="" style="endArrow=none;html=1;rounded=0;entryDx=0;entryDy=0;exitX=1;exitY=0.75;exitDx=0;exitDy=0;" parent="1" source="z1wBFRxJV2j2c12fdlnA-23" edge="1">
          <mxGeometry relative="1" as="geometry">
            <mxPoint x="380" y="420" as="sourcePoint" />
            <mxPoint x="380.0000000000002" y="419.96000000000004" as="targetPoint" />
            <Array as="points" />
          </mxGeometry>
        </mxCell>
        <mxCell id="Pqjdnb121rRu-mDI8d-q-31" value="" style="shape=table;childLayout=tableLayout;fixedRows=1;rounded=0;whiteSpace=wrap;html=1;startSize=0;" parent="1" vertex="1">
          <mxGeometry x="460" y="340" width="120" height="150" as="geometry" />
        </mxCell>
        <mxCell id="Pqjdnb121rRu-mDI8d-q-32" value="" style="shape=tableRow;horizontal=0;startSize=0;swimlaneHead=0;swimlaneBody=0;fillColor=none;collapsible=0;dropTarget=0;points=[[0,0.5],[1,0.5]];portConstraint=eastwest;top=0;left=0;right=0;bottom=1;" parent="Pqjdnb121rRu-mDI8d-q-31" vertex="1">
          <mxGeometry width="120" height="20" as="geometry" />
        </mxCell>
        <mxCell id="Pqjdnb121rRu-mDI8d-q-33" value="FK" style="shape=partialRectangle;connectable=0;fillColor=none;top=0;left=0;bottom=0;right=0;fontStyle=1;overflow=hidden;" parent="Pqjdnb121rRu-mDI8d-q-32" vertex="1">
          <mxGeometry width="20" height="20" as="geometry">
            <mxRectangle width="20" height="20" as="alternateBounds" />
          </mxGeometry>
        </mxCell>
        <mxCell id="Pqjdnb121rRu-mDI8d-q-34" value="Номер запроса" style="shape=partialRectangle;connectable=0;fillColor=none;top=0;left=0;bottom=0;right=0;align=left;spacingLeft=6;fontStyle=5;overflow=hidden;" parent="Pqjdnb121rRu-mDI8d-q-32" vertex="1">
          <mxGeometry x="20" width="100" height="20" as="geometry">
            <mxRectangle width="100" height="20" as="alternateBounds" />
          </mxGeometry>
        </mxCell>
        <mxCell id="Pqjdnb121rRu-mDI8d-q-65" value="" style="shape=tableRow;horizontal=0;startSize=0;swimlaneHead=0;swimlaneBody=0;fillColor=none;collapsible=0;dropTarget=0;points=[[0,0.5],[1,0.5]];portConstraint=eastwest;top=0;left=0;right=0;bottom=1;" parent="Pqjdnb121rRu-mDI8d-q-31" vertex="1">
          <mxGeometry y="20" width="120" height="20" as="geometry" />
        </mxCell>
        <mxCell id="Pqjdnb121rRu-mDI8d-q-66" value="FK" style="shape=partialRectangle;connectable=0;fillColor=none;top=0;left=0;bottom=0;right=0;fontStyle=1;overflow=hidden;" parent="Pqjdnb121rRu-mDI8d-q-65" vertex="1">
          <mxGeometry width="20" height="20" as="geometry">
            <mxRectangle width="20" height="20" as="alternateBounds" />
          </mxGeometry>
        </mxCell>
        <mxCell id="Pqjdnb121rRu-mDI8d-q-67" value="ICBN" style="shape=partialRectangle;connectable=0;fillColor=none;top=0;left=0;bottom=0;right=0;align=left;spacingLeft=6;fontStyle=5;overflow=hidden;" parent="Pqjdnb121rRu-mDI8d-q-65" vertex="1">
          <mxGeometry x="20" width="100" height="20" as="geometry">
            <mxRectangle width="100" height="20" as="alternateBounds" />
          </mxGeometry>
        </mxCell>
        <mxCell id="UOg6_Ew0T-RVkcR_U9us-18" value="" style="shape=tableRow;horizontal=0;startSize=0;swimlaneHead=0;swimlaneBody=0;fillColor=none;collapsible=0;dropTarget=0;points=[[0,0.5],[1,0.5]];portConstraint=eastwest;top=0;left=0;right=0;bottom=0;" parent="Pqjdnb121rRu-mDI8d-q-31" vertex="1">
          <mxGeometry y="40" width="120" height="30" as="geometry" />
        </mxCell>
        <mxCell id="UOg6_Ew0T-RVkcR_U9us-19" value="" style="shape=partialRectangle;connectable=0;fillColor=none;top=0;left=0;bottom=0;right=0;editable=1;overflow=hidden;" parent="UOg6_Ew0T-RVkcR_U9us-18" vertex="1">
          <mxGeometry width="20" height="30" as="geometry">
            <mxRectangle width="20" height="30" as="alternateBounds" />
          </mxGeometry>
        </mxCell>
        <mxCell id="UOg6_Ew0T-RVkcR_U9us-20" value="Выдана/&#xa;Не выдана" style="shape=partialRectangle;connectable=0;fillColor=none;top=0;left=0;bottom=0;right=0;align=left;spacingLeft=6;overflow=hidden;" parent="UOg6_Ew0T-RVkcR_U9us-18" vertex="1">
          <mxGeometry x="20" width="100" height="30" as="geometry">
            <mxRectangle width="100" height="30" as="alternateBounds" />
          </mxGeometry>
        </mxCell>
        <mxCell id="UOg6_Ew0T-RVkcR_U9us-21" value="" style="shape=tableRow;horizontal=0;startSize=0;swimlaneHead=0;swimlaneBody=0;fillColor=none;collapsible=0;dropTarget=0;points=[[0,0.5],[1,0.5]];portConstraint=eastwest;top=0;left=0;right=0;bottom=0;" parent="Pqjdnb121rRu-mDI8d-q-31" vertex="1">
          <mxGeometry y="70" width="120" height="20" as="geometry" />
        </mxCell>
        <mxCell id="UOg6_Ew0T-RVkcR_U9us-22" value="" style="shape=partialRectangle;connectable=0;fillColor=none;top=0;left=0;bottom=0;right=0;editable=1;overflow=hidden;" parent="UOg6_Ew0T-RVkcR_U9us-21" vertex="1">
          <mxGeometry width="20" height="20" as="geometry">
            <mxRectangle width="20" height="20" as="alternateBounds" />
          </mxGeometry>
        </mxCell>
        <mxCell id="UOg6_Ew0T-RVkcR_U9us-23" value="Дата выдачи" style="shape=partialRectangle;connectable=0;fillColor=none;top=0;left=0;bottom=0;right=0;align=left;spacingLeft=6;overflow=hidden;" parent="UOg6_Ew0T-RVkcR_U9us-21" vertex="1">
          <mxGeometry x="20" width="100" height="20" as="geometry">
            <mxRectangle width="100" height="20" as="alternateBounds" />
          </mxGeometry>
        </mxCell>
        <mxCell id="UOg6_Ew0T-RVkcR_U9us-24" value="" style="shape=tableRow;horizontal=0;startSize=0;swimlaneHead=0;swimlaneBody=0;fillColor=none;collapsible=0;dropTarget=0;points=[[0,0.5],[1,0.5]];portConstraint=eastwest;top=0;left=0;right=0;bottom=0;" parent="Pqjdnb121rRu-mDI8d-q-31" vertex="1">
          <mxGeometry y="90" width="120" height="20" as="geometry" />
        </mxCell>
        <mxCell id="UOg6_Ew0T-RVkcR_U9us-25" value="" style="shape=partialRectangle;connectable=0;fillColor=none;top=0;left=0;bottom=0;right=0;editable=1;overflow=hidden;" parent="UOg6_Ew0T-RVkcR_U9us-24" vertex="1">
          <mxGeometry width="20" height="20" as="geometry">
            <mxRectangle width="20" height="20" as="alternateBounds" />
          </mxGeometry>
        </mxCell>
        <mxCell id="UOg6_Ew0T-RVkcR_U9us-26" value="Срок возврата" style="shape=partialRectangle;connectable=0;fillColor=none;top=0;left=0;bottom=0;right=0;align=left;spacingLeft=6;overflow=hidden;" parent="UOg6_Ew0T-RVkcR_U9us-24" vertex="1">
          <mxGeometry x="20" width="100" height="20" as="geometry">
            <mxRectangle width="100" height="20" as="alternateBounds" />
          </mxGeometry>
        </mxCell>
        <mxCell id="UOg6_Ew0T-RVkcR_U9us-28" value="" style="shape=tableRow;horizontal=0;startSize=0;swimlaneHead=0;swimlaneBody=0;fillColor=none;collapsible=0;dropTarget=0;points=[[0,0.5],[1,0.5]];portConstraint=eastwest;top=0;left=0;right=0;bottom=0;" parent="Pqjdnb121rRu-mDI8d-q-31" vertex="1">
          <mxGeometry y="110" width="120" height="20" as="geometry" />
        </mxCell>
        <mxCell id="UOg6_Ew0T-RVkcR_U9us-29" value="" style="shape=partialRectangle;connectable=0;fillColor=none;top=0;left=0;bottom=0;right=0;editable=1;overflow=hidden;" parent="UOg6_Ew0T-RVkcR_U9us-28" vertex="1">
          <mxGeometry width="20" height="20" as="geometry">
            <mxRectangle width="20" height="20" as="alternateBounds" />
          </mxGeometry>
        </mxCell>
        <mxCell id="UOg6_Ew0T-RVkcR_U9us-30" value="Продление" style="shape=partialRectangle;connectable=0;fillColor=none;top=0;left=0;bottom=0;right=0;align=left;spacingLeft=6;overflow=hidden;" parent="UOg6_Ew0T-RVkcR_U9us-28" vertex="1">
          <mxGeometry x="20" width="100" height="20" as="geometry">
            <mxRectangle width="100" height="20" as="alternateBounds" />
          </mxGeometry>
        </mxCell>
        <mxCell id="UOg6_Ew0T-RVkcR_U9us-31" value="" style="shape=tableRow;horizontal=0;startSize=0;swimlaneHead=0;swimlaneBody=0;fillColor=none;collapsible=0;dropTarget=0;points=[[0,0.5],[1,0.5]];portConstraint=eastwest;top=0;left=0;right=0;bottom=0;" parent="Pqjdnb121rRu-mDI8d-q-31" vertex="1">
          <mxGeometry y="130" width="120" height="20" as="geometry" />
        </mxCell>
        <mxCell id="UOg6_Ew0T-RVkcR_U9us-32" value="" style="shape=partialRectangle;connectable=0;fillColor=none;top=0;left=0;bottom=0;right=0;editable=1;overflow=hidden;" parent="UOg6_Ew0T-RVkcR_U9us-31" vertex="1">
          <mxGeometry width="20" height="20" as="geometry">
            <mxRectangle width="20" height="20" as="alternateBounds" />
          </mxGeometry>
        </mxCell>
        <mxCell id="UOg6_Ew0T-RVkcR_U9us-33" value="Возврат" style="shape=partialRectangle;connectable=0;fillColor=none;top=0;left=0;bottom=0;right=0;align=left;spacingLeft=6;overflow=hidden;" parent="UOg6_Ew0T-RVkcR_U9us-31" vertex="1">
          <mxGeometry x="20" width="100" height="20" as="geometry">
            <mxRectangle width="100" height="20" as="alternateBounds" />
          </mxGeometry>
        </mxCell>
        <mxCell id="Pqjdnb121rRu-mDI8d-q-35" value="E12/Запрос на книгу" style="text;html=1;align=center;verticalAlign=middle;resizable=0;points=[];autosize=1;strokeColor=none;fillColor=none;" parent="1" vertex="1">
          <mxGeometry x="456" y="320" width="130" height="20" as="geometry" />
        </mxCell>
        <mxCell id="Pqjdnb121rRu-mDI8d-q-37" value="" style="shape=waypoint;sketch=0;fillStyle=solid;size=6;pointerEvents=1;points=[];fillColor=none;resizable=0;rotatable=0;perimeter=centerPerimeter;snapToPoint=1;" parent="1" vertex="1">
          <mxGeometry x="370" y="110" width="40" height="40" as="geometry" />
        </mxCell>
        <mxCell id="Pqjdnb121rRu-mDI8d-q-38" value="" style="endArrow=none;html=1;rounded=0;exitX=1.007;exitY=0.368;exitDx=0;exitDy=0;exitPerimeter=0;" parent="1" target="Pqjdnb121rRu-mDI8d-q-37" edge="1">
          <mxGeometry width="50" height="50" relative="1" as="geometry">
            <mxPoint x="390.8399999999999" y="128.39999999999998" as="sourcePoint" />
            <mxPoint x="480" y="70" as="targetPoint" />
            <Array as="points" />
          </mxGeometry>
        </mxCell>
        <mxCell id="Pqjdnb121rRu-mDI8d-q-39" value="" style="endArrow=none;html=1;dashed=0;rounded=0;exitX=0.764;exitY=1.028;exitDx=0;exitDy=0;exitPerimeter=0;" parent="1" source="bO-Ev2rAPcP5Glvwb2sy-79" edge="1">
          <mxGeometry relative="1" as="geometry">
            <mxPoint x="360" y="270" as="sourcePoint" />
            <mxPoint x="460" y="350" as="targetPoint" />
            <Array as="points">
              <mxPoint x="398" y="350" />
            </Array>
          </mxGeometry>
        </mxCell>
        <mxCell id="Pqjdnb121rRu-mDI8d-q-40" value="" style="shape=waypoint;sketch=0;fillStyle=solid;size=6;pointerEvents=1;points=[];fillColor=none;resizable=0;rotatable=0;perimeter=centerPerimeter;snapToPoint=1;" parent="1" vertex="1">
          <mxGeometry x="440" y="329.96" width="40" height="40" as="geometry" />
        </mxCell>
        <mxCell id="Pqjdnb121rRu-mDI8d-q-45" value="" style="shape=waypoint;sketch=0;fillStyle=solid;size=6;pointerEvents=1;points=[];fillColor=none;resizable=0;rotatable=0;perimeter=centerPerimeter;snapToPoint=1;" parent="1" vertex="1">
          <mxGeometry x="440" y="390" width="40" height="40" as="geometry" />
        </mxCell>
        <mxCell id="Pqjdnb121rRu-mDI8d-q-46" value="" style="endArrow=none;html=1;rounded=0;exitX=1;exitY=0.5;exitDx=0;exitDy=0;" parent="1" edge="1">
          <mxGeometry relative="1" as="geometry">
            <mxPoint x="380" y="395" as="sourcePoint" />
            <mxPoint x="460" y="410" as="targetPoint" />
            <Array as="points">
              <mxPoint x="440" y="395" />
              <mxPoint x="440" y="410" />
            </Array>
          </mxGeometry>
        </mxCell>
        <mxCell id="Pqjdnb121rRu-mDI8d-q-55" value="" style="endArrow=none;html=1;rounded=0;exitDx=0;exitDy=0;exitPerimeter=0;startArrow=none;" parent="1" edge="1">
          <mxGeometry relative="1" as="geometry">
            <mxPoint x="585" y="364.96000000000004" as="sourcePoint" />
            <mxPoint x="585" y="364.96000000000004" as="targetPoint" />
            <Array as="points" />
          </mxGeometry>
        </mxCell>
        <mxCell id="Pqjdnb121rRu-mDI8d-q-72" value="" style="endArrow=none;html=1;dashed=0;rounded=0;entryDx=0;entryDy=0;" parent="1" target="z1wBFRxJV2j2c12fdlnA-33" edge="1">
          <mxGeometry relative="1" as="geometry">
            <mxPoint x="180" y="410" as="sourcePoint" />
            <mxPoint x="255" y="410" as="targetPoint" />
            <Array as="points" />
          </mxGeometry>
        </mxCell>
        <mxCell id="z1wBFRxJV2j2c12fdlnA-33" value="" style="shape=waypoint;sketch=0;fillStyle=solid;size=6;pointerEvents=1;points=[];fillColor=none;resizable=0;rotatable=0;perimeter=centerPerimeter;snapToPoint=1;" parent="1" vertex="1">
          <mxGeometry x="155" y="390" width="40" height="40" as="geometry" />
        </mxCell>
        <mxCell id="Pqjdnb121rRu-mDI8d-q-74" value="Входит/&lt;br&gt;Является" style="text;html=1;align=center;verticalAlign=middle;resizable=0;points=[];autosize=1;strokeColor=none;fillColor=none;" parent="1" vertex="1">
          <mxGeometry x="10" y="510" width="70" height="30" as="geometry" />
        </mxCell>
        <mxCell id="Pqjdnb121rRu-mDI8d-q-75" value="Участвует в/&lt;br&gt;Включает" style="text;html=1;align=center;verticalAlign=middle;resizable=0;points=[];autosize=1;strokeColor=none;fillColor=none;" parent="1" vertex="1">
          <mxGeometry x="210" y="230" width="80" height="30" as="geometry" />
        </mxCell>
        <mxCell id="Pqjdnb121rRu-mDI8d-q-76" value="Представляет" style="text;html=1;align=center;verticalAlign=middle;resizable=0;points=[];autosize=1;strokeColor=none;fillColor=none;" parent="1" vertex="1">
          <mxGeometry x="600" y="504.96" width="90" height="20" as="geometry" />
        </mxCell>
        <mxCell id="Pqjdnb121rRu-mDI8d-q-78" value="Включена в" style="text;html=1;align=center;verticalAlign=middle;resizable=0;points=[];autosize=1;strokeColor=none;fillColor=none;" parent="1" vertex="1">
          <mxGeometry x="355" y="547.5" width="80" height="20" as="geometry" />
        </mxCell>
        <mxCell id="Pqjdnb121rRu-mDI8d-q-84" value="Содержит" style="text;html=1;align=center;verticalAlign=middle;resizable=0;points=[];autosize=1;strokeColor=none;fillColor=none;" parent="1" vertex="1">
          <mxGeometry x="395" y="309.96" width="70" height="20" as="geometry" />
        </mxCell>
        <mxCell id="Pqjdnb121rRu-mDI8d-q-87" value="Участвует в" style="text;html=1;align=center;verticalAlign=middle;resizable=0;points=[];autosize=1;strokeColor=none;fillColor=none;" parent="1" vertex="1">
          <mxGeometry x="374" y="364.96" width="80" height="20" as="geometry" />
        </mxCell>
        <mxCell id="Pqjdnb121rRu-mDI8d-q-88" value="&amp;lt;----&lt;br&gt;Написана" style="text;html=1;align=center;verticalAlign=middle;resizable=0;points=[];autosize=1;strokeColor=none;fillColor=none;" parent="1" vertex="1">
          <mxGeometry x="180" y="380" width="70" height="30" as="geometry" />
        </mxCell>
        <mxCell id="Pqjdnb121rRu-mDI8d-q-115" value="" style="shape=waypoint;sketch=0;fillStyle=solid;size=6;pointerEvents=1;points=[];fillColor=none;resizable=0;rotatable=0;perimeter=centerPerimeter;snapToPoint=1;" parent="1" vertex="1">
          <mxGeometry x="546" y="580" width="40" height="40" as="geometry" />
        </mxCell>
        <mxCell id="Pqjdnb121rRu-mDI8d-q-125" value="" style="shape=waypoint;sketch=0;fillStyle=solid;size=6;pointerEvents=1;points=[];fillColor=none;resizable=0;rotatable=0;perimeter=centerPerimeter;snapToPoint=1;" parent="1" vertex="1">
          <mxGeometry x="430" y="580" width="40" height="40" as="geometry" />
        </mxCell>
        <mxCell id="UOg6_Ew0T-RVkcR_U9us-27" value="" style="endArrow=none;html=1;dashed=0;rounded=0;exitX=0.75;exitY=1;exitDx=0;exitDy=0;entryDx=0;entryDy=0;" parent="1" source="z1wBFRxJV2j2c12fdlnA-23" target="Pqjdnb121rRu-mDI8d-q-125" edge="1">
          <mxGeometry relative="1" as="geometry">
            <mxPoint x="348.75" y="470" as="sourcePoint" />
            <mxPoint x="450" y="600" as="targetPoint" />
            <Array as="points">
              <mxPoint x="350" y="600" />
            </Array>
          </mxGeometry>
        </mxCell>
      </root>
    </mxGraphModel>
  </diagram>
</mxfile>
